<svg width="25" height="25" viewBox="0 0 25 25" fill="none" xmlns="http://www.w3.org/2000/svg">
<path d="M1.83333 11.2142H9.83333C10.187 11.2142 10.5261 11.0787 10.7761 10.8376C11.0262 10.5965 11.1667 10.2695 11.1667 9.92847V2.21418C11.1667 1.87319 11.0262 1.54616 10.7761 1.30504C10.5261 1.06393 10.187 0.928467 9.83333 0.928467H1.83333C1.47971 0.928467 1.14057 1.06393 0.890524 1.30504C0.640476 1.54616 0.5 1.87319 0.5 2.21418V9.92847C0.5 10.2695 0.640476 10.5965 0.890524 10.8376C1.14057 11.0787 1.47971 11.2142 1.83333 11.2142ZM15.1667 11.2142H23.1667C23.5203 11.2142 23.8594 11.0787 24.1095 10.8376C24.3595 10.5965 24.5 10.2695 24.5 9.92847V2.21418C24.5 1.87319 24.3595 1.54616 24.1095 1.30504C23.8594 1.06393 23.5203 0.928467 23.1667 0.928467H15.1667C14.813 0.928467 14.4739 1.06393 14.2239 1.30504C13.9738 1.54616 13.8333 1.87319 13.8333 2.21418V9.92847C13.8333 10.2695 13.9738 10.5965 14.2239 10.8376C14.4739 11.0787 14.813 11.2142 15.1667 11.2142ZM1.83333 24.0713H9.83333C10.187 24.0713 10.5261 23.9359 10.7761 23.6947C11.0262 23.4536 11.1667 23.1266 11.1667 22.7856V15.0713C11.1667 14.7303 11.0262 14.4033 10.7761 14.1622C10.5261 13.9211 10.187 13.7856 9.83333 13.7856H1.83333C1.47971 13.7856 1.14057 13.9211 0.890524 14.1622C0.640476 14.4033 0.5 14.7303 0.5 15.0713V22.7856C0.5 23.1266 0.640476 23.4536 0.890524 23.6947C1.14057 23.9359 1.47971 24.0713 1.83333 24.0713ZM19.1667 24.0713C22.108 24.0713 24.5 21.7648 24.5 18.9285C24.5 16.0922 22.108 13.7856 19.1667 13.7856C16.2253 13.7856 13.8333 16.0922 13.8333 18.9285C13.8333 21.7648 16.2253 24.0713 19.1667 24.0713Z" fill="#B0B0B0"/>
</svg>
