<svg width="25" height="22" viewBox="0 0 25 22" fill="none" xmlns="http://www.w3.org/2000/svg">
<path d="M22.3731 2.55437C21.7096 1.88622 20.9206 1.3558 20.0515 0.993599C19.1823 0.6314 18.2501 0.444569 17.3085 0.443848C16.1462 0.444038 15.0116 0.729057 13.9991 1.26208C13.0792 1.74635 11.9215 1.74626 11.0016 1.26195C9.98912 0.728869 8.85443 0.443884 7.69206 0.443848C6.74935 0.444829 5.81614 0.63223 4.94613 0.995265C4.07613 1.3583 3.28651 1.8898 2.62271 2.55919C-0.208572 5.4025 -0.207369 9.84976 2.62511 12.681L11.0861 21.142C11.8671 21.9231 13.1335 21.9231 13.9145 21.142L22.3755 12.681C25.208 9.84976 25.2092 5.4025 22.3731 2.55437Z" fill="#B0B0B0"/>
</svg>
