<svg width="25" height="25" viewBox="0 0 25 25" fill="none" xmlns="http://www.w3.org/2000/svg">
<path d="M24.1889 12.8888L13.3901 0.880076C12.9354 0.373308 12.0619 0.373308 11.6071 0.880076L0.808346 12.8888C0.652911 13.0612 0.550884 13.2751 0.514672 13.5045C0.47846 13.7339 0.509621 13.9689 0.604369 14.1809C0.796347 14.6144 1.2259 14.893 1.69985 14.893H4.09958V23.2991C4.09958 23.6176 4.22599 23.9231 4.45101 24.1483C4.67603 24.3735 4.98122 24.5 5.29944 24.5H8.89904C9.21727 24.5 9.52246 24.3735 9.74748 24.1483C9.97249 23.9231 10.0989 23.6176 10.0989 23.2991V18.4956H14.8984V23.2991C14.8984 23.6176 15.0248 23.9231 15.2498 24.1483C15.4748 24.3735 15.78 24.5 16.0982 24.5H19.6978C20.0161 24.5 20.3213 24.3735 20.5463 24.1483C20.7713 23.9231 20.8977 23.6176 20.8977 23.2991V14.893H23.2974C23.5298 14.894 23.7574 14.8273 23.9526 14.7011C24.1478 14.5748 24.302 14.3945 24.3965 14.182C24.491 13.9695 24.5217 13.7341 24.4848 13.5045C24.448 13.2749 24.3452 13.0609 24.1889 12.8888Z" fill="#B0B0B0"/>
</svg>
